# xmcd
# 
# Track frame offsets:
#     182
#     25570
#     46822
#     63267
#     90925
#     111820
#     129750
#     152207
#     172055
#     192265
#     215495
#     238680
#     266345
# 
# Disc length: 3804
# 
# Revision: 4
# Processed by: cddbd v1.5.2PL0 Copyright (c) Steve Scherf et al.
# Submitted via: fre:ac v1.0.17
# 
DISCID=a10eda0d
DTITLE=Volker Kriegel - Das Beste aus den Siebzigern
DYEAR=0
DGENRE=Jazz
TTITLE0=Bahia Next Year
TTITLE1=Circus Gambet
TTITLE2=Hallo Albert
TTITLE3=Oriente
TTITLE4=Let s Say Windmill
TTITLE5=Are You Really Living Next To Me
TTITLE6=Memory Delay
TTITLE7=Uma Vez Um Caso
TTITLE8=Your Face, Your Voice
TTITLE9=Mild Maniac
TTITLE10=Achterbahn
TTITLE11=Three Or Two In One
TTITLE12=Sing Me Softly Of The Blues
EXTD=
EXTT0=
EXTT1=
EXTT2=
EXTT3=
EXTT4=
EXTT5=
EXTT6=
EXTT7=
EXTT8=
EXTT9=
EXTT10=
EXTT11=
EXTT12=
PLAYORDER=
